Land_normalized_Motion_pl15
version=1
nRows=16
nColumns=43
inDegrees=yes
endheader
time		pelvis_tilt		pelvis_list		pelvis_rotation		pelvis_tx		pelvis_ty		pelvis_tz		hip_flexion_r		hip_adduction_r		hip_rotation_r		knee_angle_r		ankle_angle_r		subtalar_angle_r		mtp_angle_r		hip_flexion_l		hip_adduction_l		hip_rotation_l		knee_angle_l		ankle_angle_l		subtalar_angle_l		mtp_angle_l		lumbar_extension		lumbar_bending		lumbar_rotation		neck_flexion		neck_lateral_bending		neck_rotation		arm_flex_r		arm_add_r		arm_rot_r		elbow_flex_r		pro_sup_r		wrist_flex_r		wrist_dev_r		hand_finger_flex_r		arm_flex_l		arm_add_l		arm_rot_l		elbow_flex_l		pro_sup_l		wrist_flex_l		wrist_dev_l		hand_finger_flex_l		
2.099167		0.745922		15.506998		88.024087		-0.031005		0.492711		0.442199		83.155177		-3.130014		3.075047		-134.027725		12.191081		4.283765		25.479789		77.379398		-2.584638		2.426714		-136.005544		19.652161		12.035471		29.733703		-64.336070		4.260015		11.111757		21.311745		0.783783		-8.340881		63.183235		-26.603379		8.942772		60.287453		113.870840		1.031773		-13.557860		-15.544965		45.691160		-28.155036		12.171929		59.994759		125.402295		-31.504302		-9.269714		-4.833977		
2.102828		0.726451		15.523062		87.947789		-0.030360		0.488072		0.441215		83.900472		-3.051807		3.184289		-134.753622		12.077768		4.505729		25.467068		77.907730		-2.893295		2.376571		-136.719536		19.827322		12.123420		29.662631		-64.770643		3.987189		10.917367		22.012527		0.870761		-8.376292		66.132623		-26.855869		10.688842		60.663898		114.238354		1.346849		-13.434680		-15.431178		48.150120		-28.153221		12.150406		60.313789		125.179591		-31.468855		-9.241536		-4.845267		
2.106490		0.743513		15.596779		87.890125		-0.029867		0.483724		0.440278		84.491905		-2.989582		3.297332		-135.428297		12.076705		4.843881		25.480347		78.401433		-3.171812		2.365625		-137.413437		19.903617		12.197459		29.586597		-65.273546		3.792947		10.691948		22.635110		0.865958		-8.384928		69.117793		-27.005591		12.476899		60.961213		114.571668		1.523326		-13.259909		-15.443997		50.555051		-28.201016		12.187969		60.627811		124.819072		-31.589378		-9.130519		-4.828788		
2.110152		0.844249		15.802409		87.870200		-0.029673		0.479834		0.439432		84.793446		-2.987979		3.399638		-136.021321		12.281368		5.502257		25.535614		78.760021		-3.410220		2.418629		-138.090888		19.948240		12.228982		29.468060		-65.923976		3.758069		10.440498		23.152438		0.671392		-8.293451		72.229003		-27.044589		14.554546		61.060703		114.500557		1.273680		-13.018023		-15.829930		52.935739		-28.329779		12.427944		60.896364		123.901665		-32.187282		-8.831321		-4.659353		
2.113813		0.889488		15.781587		87.906393		-0.029392		0.475512		0.438460		85.317904		-2.965179		3.509593		-136.618728		12.540536		5.794650		25.583731		79.416361		-3.566558		2.503196		-138.758281		19.889142		12.312629		29.449586		-66.304779		3.652704		10.178124		23.650446		0.828827		-8.314615		74.954645		-27.040003		15.917985		61.327090		114.662782		1.631621		-12.982317		-15.787362		55.334763		-28.451480		12.676212		61.125777		123.635013		-32.254719		-8.858668		-4.436056		
2.117475		0.999661		15.923849		87.954751		-0.029338		0.471770		0.437614		85.529578		-2.988300		3.631566		-137.134184		12.990737		6.554336		25.622238		79.861604		-3.711118		2.614278		-139.399945		19.883678		12.369655		29.488143		-66.872591		3.663585		9.878721		24.086178		0.822214		-8.223070		77.876822		-26.974204		17.859620		61.295421		113.727786		1.305928		-12.896826		-16.519919		57.824750		-28.774720		13.570075		61.192376		122.022099		-33.316244		-8.843063		-3.702442		
2.121136		1.051980		15.879660		87.943293		-0.029173		0.467812		0.436739		86.007242		-2.968848		3.722033		-137.652210		13.287944		6.843689		25.661798		80.473055		-3.898958		2.690167		-140.002437		19.873867		12.455527		29.519062		-67.222456		3.555851		9.640243		24.408396		0.887330		-8.202322		80.402070		-26.764035		18.826474		61.442304		113.911694		1.745032		-12.862943		-16.414795		60.194323		-28.786144		13.851810		61.212439		121.840223		-33.175198		-8.858506		-3.496969		
2.124798		1.112117		15.943612		87.931602		-0.029079		0.464372		0.436040		86.308614		-2.975806		3.868070		-138.106421		13.670153		7.565849		25.666958		80.904718		-4.079806		2.753917		-140.553606		19.938386		12.548577		29.610087		-67.708413		3.463034		9.405884		24.717987		0.910765		-8.211164		82.980817		-26.551499		20.018589		61.388516		113.278238		1.837876		-12.951983		-16.834903		62.717609		-28.930772		14.766992		61.090110		120.654445		-33.575483		-8.796105		-3.444219		
2.128460		1.123249		15.791056		87.915938		-0.028822		0.460737		0.435278		86.899546		-3.009080		3.935365		-138.558122		13.875503		7.813400		25.665941		81.549314		-4.272585		2.784149		-141.077381		20.010308		12.573734		29.642312		-67.956917		3.305653		9.124381		25.036834		1.060853		-8.243090		85.167108		-26.110895		20.519408		61.438032		112.954250		2.065986		-13.021728		-16.963822		65.095952		-28.923469		15.263454		60.901039		120.243440		-33.502770		-8.798692		-3.411378		
2.132121		1.100889		15.617376		87.903028		-0.028569		0.457142		0.434598		87.519265		-3.046751		4.036081		-139.004751		14.123137		8.129231		25.647369		82.209195		-4.457801		2.754482		-141.585413		20.089894		12.596968		29.666063		-68.174366		3.122331		8.866702		25.283332		1.155634		-8.282595		87.354870		-25.822384		21.165194		61.414066		112.421476		2.399555		-13.155088		-17.169951		67.562400		-29.096541		16.262920		60.694376		119.789521		-33.405438		-8.905733		-3.371918		
2.135783		1.009615		15.432084		87.933851		-0.028395		0.453856		0.434015		88.113163		-3.133577		4.214230		-139.410054		14.383851		8.488256		25.568081		82.815534		-4.573290		2.647789		-142.016067		20.179600		12.591153		29.619982		-68.367291		2.915037		8.575224		25.430488		1.347087		-8.413814		89.330847		-25.542184		21.582326		61.374435		111.488700		2.746028		-13.462022		-17.548740		70.080191		-29.102993		17.361272		60.294487		119.292267		-33.541307		-8.788735		-3.340851		
2.139444		1.013999		15.162168		87.969859		-0.028260		0.450642		0.433401		88.723755		-3.249343		4.210916		-139.776310		14.682262		8.613092		25.549324		83.510639		-4.656373		2.672180		-142.432724		20.277080		12.569474		29.587935		-68.492343		2.816195		8.285338		25.623696		1.411839		-8.418061		91.144952		-25.027846		21.696776		61.350357		111.195457		2.967496		-13.580779		-17.627346		72.308797		-29.170571		18.015931		60.089239		119.423290		-33.203950		-8.791778		-3.157056		
2.143106		0.966431		14.929427		88.056063		-0.028259		0.447731		0.432851		89.218375		-3.407310		4.278755		-140.105673		15.066962		8.800106		25.470124		84.119956		-4.676143		2.626537		-142.800162		20.391157		12.590774		29.507494		-68.630370		2.705964		7.981471		25.696493		1.587886		-8.481161		92.810160		-24.610261		21.713811		61.274334		110.611098		3.248692		-13.908850		-17.753420		74.585564		-29.116593		18.853994		59.762375		119.514487		-32.994046		-8.558347		-2.977471		
2.146768		0.885400		14.744694		88.152938		-0.028315		0.445047		0.432282		89.639294		-3.621552		4.342687		-140.440903		15.495551		8.952383		25.242071		84.619650		-4.651702		2.579054		-143.135814		20.541658		12.683818		29.346717		-68.795896		2.555921		7.672132		25.764631		1.875443		-8.567547		94.318825		-24.210693		21.552385		61.146176		109.895322		3.510968		-14.256402		-17.933408		76.802965		-28.931872		19.731874		59.430417		119.512289		-32.942674		-8.188605		-2.806443		
2.150429		0.896424		14.482438		88.201419		-0.028465		0.442533		0.431726		90.049686		-3.790346		4.287921		-140.697474		15.918216		8.969031		25.134747		85.179968		-4.643745		2.614323		-143.448928		20.695071		12.737643		29.272608		-68.915863		2.490553		7.413583		25.914400		1.990235		-8.561875		95.750983		-23.650415		21.286887		61.049247		109.619087		3.573399		-14.324226		-18.017969		78.735902		-28.716899		20.172428		59.183878		119.555324		-32.706368		-8.057250		-2.664442		
2.154091		0.887070		14.256210		88.307110		-0.028489		0.440130		0.431189		90.396041		-4.036170		4.164785		-140.960815		16.516129		8.870318		24.962874		85.668847		-4.561298		2.737453		-143.724211		20.889409		12.935566		29.188143		-69.029781		2.409402		7.149358		25.886116		2.176539		-8.537966		96.975245		-23.151646		20.805391		60.992008		109.456798		3.744928		-14.433378		-17.986090		80.731812		-28.513335		20.904364		58.856770		119.607413		-32.294971		-7.996236		-2.497138		
